<svg width="253" height="233" viewBox="0 0 253 233" fill="none" xmlns="http://www.w3.org/2000/svg">
<path d="M250.091 179.103L140.276 229.289V77.1839L250.091 27.0254V179.103Z" fill="#2C3440"/>
<path d="M2.81079 179.103L112.626 229.289V77.1839L2.81079 27.0254V179.103Z" fill="#6B8F71"/>
<path d="M140.276 77.1836H112.626V229.261H140.276V77.1836Z" fill="black"/>
<path d="M212.493 121.385L174.867 138.582V86.4286L212.493 69.2314V121.385Z" fill="white"/>
<path d="M40.4086 121.385L78.0345 138.582V86.4286L40.4086 69.2314V121.385Z" fill="white"/>
<path d="M174.859 141.396C174.33 141.396 173.799 141.244 173.338 140.952C172.535 140.432 172.049 139.544 172.049 138.586V86.4405C172.049 85.339 172.692 84.3415 173.69 83.8834L211.335 66.6806C212.206 66.2844 213.215 66.3518 214.024 66.8717C214.828 67.3887 215.314 68.2795 215.314 69.2349V121.377C215.314 122.479 214.671 123.476 213.673 123.932L176.028 141.14C175.654 141.309 175.255 141.396 174.859 141.396ZM177.669 88.2473V134.211L209.694 119.576V73.6129L177.669 88.2473Z" fill="black"/>
<path d="M126.451 72.6541C126.451 32.5329 110.881 15.1896 74.2325 2.81152V27.0253L126.451 72.6541Z" fill="#D8D0B3"/>
<path d="M126.451 75.4642C125.785 75.4642 125.125 75.2282 124.602 74.7702L72.3836 29.1414C71.7739 28.6075 71.4226 27.8375 71.4226 27.0254V2.81166C71.4226 1.90684 71.8582 1.05541 72.5944 0.527132C73.3306 -0.00114759 74.2748 -0.141648 75.1318 0.147782C114.59 13.4784 129.261 33.1288 129.261 72.6542C129.261 73.7557 128.617 74.7561 127.614 75.2141C127.24 75.3827 126.844 75.4642 126.451 75.4642ZM77.0426 25.7497L123.503 66.3486C122.07 34.7473 109.276 18.483 77.0426 6.77376V25.7497Z" fill="black"/>
<path d="M126.451 77.1954V72.6544C126.451 62.3755 121.348 52.6782 112.693 47.1284C87.5211 30.9793 58.446 20.9055 26.9431 14.6055L2.81079 27.0257L112.62 77.1982L126.451 77.1954Z" fill="#D8D0B3"/>
<path d="M126.451 77.1954V72.6545C126.451 62.3755 131.554 52.6782 140.209 47.1284C165.383 30.9793 194.458 20.9055 225.961 14.6055L250.094 27.0257L140.282 77.1954H126.451Z" fill="#D8D0B3"/>
<path d="M174.861 161.461C173.794 161.461 172.776 160.851 172.304 159.82C171.661 158.407 172.279 156.74 173.69 156.097L211.335 138.897C212.751 138.251 214.415 138.874 215.058 140.282C215.702 141.696 215.084 143.362 213.673 144.005L176.028 161.205C175.648 161.38 175.249 161.461 174.861 161.461Z" fill="black"/>
<path d="M174.861 181.533C173.794 181.533 172.776 180.923 172.304 179.892C171.661 178.479 172.279 176.812 173.69 176.169L211.335 158.966C212.751 158.317 214.415 158.941 215.058 160.351C215.702 161.765 215.084 163.431 213.673 164.075L176.028 181.277C175.648 181.449 175.249 181.533 174.861 181.533Z" fill="black"/>
<path d="M78.043 141.395C77.644 141.395 77.2477 141.311 76.874 141.139L39.2284 123.937C38.2281 123.481 37.5874 122.481 37.5874 121.382V69.2399C37.5874 68.2845 38.0735 67.3937 38.8772 66.8767C39.6809 66.3596 40.6925 66.2894 41.5636 66.6856L79.2119 83.8884C80.2123 84.3464 80.853 85.344 80.853 86.4455V138.588C80.853 139.546 80.3668 140.434 79.5632 140.954C79.1023 141.243 78.5741 141.395 78.043 141.395ZM43.2046 119.575L75.233 134.21V88.2467L43.2046 73.6122V119.575Z" fill="black"/>
<path d="M78.0429 161.462C77.6523 161.462 77.2561 161.38 76.8767 161.206L39.2284 144.006C37.8177 143.362 37.1939 141.696 37.8402 140.283C38.4837 138.872 40.1472 138.251 41.5635 138.897L79.2118 156.097C80.6225 156.741 81.2463 158.407 80.6 159.821C80.1279 160.852 79.1079 161.462 78.0429 161.462Z" fill="black"/>
<path d="M78.0429 181.533C77.6523 181.533 77.2561 181.451 76.8767 181.277L39.2284 164.074C37.8177 163.431 37.1939 161.764 37.8402 160.351C38.4837 158.94 40.1472 158.319 41.5635 158.966L79.2118 176.169C80.6225 176.812 81.2463 178.478 80.6 179.892C80.1279 180.923 79.1079 181.533 78.0429 181.533Z" fill="black"/>
<path d="M140.282 232.094C139.753 232.094 139.222 231.942 138.761 231.647C137.958 231.13 137.472 230.242 137.472 229.284V77.1955C137.472 76.094 138.115 75.0965 139.113 74.6384L248.922 24.4687C249.79 24.0725 250.802 24.1399 251.611 24.6598C252.415 25.1796 252.901 26.0676 252.901 27.0258V179.111C252.901 180.213 252.257 181.21 251.26 181.666L141.451 231.838C141.077 232.01 140.678 232.094 140.282 232.094ZM143.092 79.0024V224.909L247.281 177.305V31.3981L143.092 79.0024Z" fill="black"/>
<path d="M112.62 232.093C112.224 232.093 111.825 232.009 111.451 231.838L1.64177 181.665C0.644222 181.207 0.000732422 180.21 0.000732422 179.108V27.0252C0.000732422 26.0698 0.486862 25.1791 1.29052 24.662C2.09418 24.145 3.10578 24.0719 3.97688 24.4709L113.786 74.6407C114.786 75.0987 115.427 76.0962 115.427 77.1978V229.286C115.427 230.244 114.941 231.132 114.137 231.649C113.679 231.942 113.151 232.093 112.62 232.093ZM5.62073 177.304L109.81 224.908V79.0018L5.62073 31.3976V177.304Z" fill="black"/>
<path d="M140.282 232.093H112.62C111.069 232.093 109.81 230.837 109.81 229.283V77.1948C109.81 75.6436 111.069 74.3848 112.62 74.3848H140.282C141.836 74.3848 143.092 75.6436 143.092 77.1948V229.283C143.092 230.837 141.836 232.093 140.282 232.093ZM115.43 226.473H137.472V80.0048H115.43V226.473Z" fill="black"/>
<path d="M126.451 80.0056H112.62C112.215 80.0056 111.819 79.9184 111.451 79.7527L1.64182 29.5801C0.663942 29.1333 0.0260716 28.1667 0.000781645 27.0904C-0.0245084 26.0142 0.565592 25.0195 1.5238 24.5249L25.6561 12.1047C26.2209 11.8125 26.8728 11.7197 27.4938 11.849C62.113 18.77 90.48 29.538 114.21 44.7625C123.635 50.8097 129.261 61.2348 129.261 72.6546V77.1956C129.261 78.7495 128.002 80.0056 126.451 80.0056ZM113.233 74.3856H123.641V72.6546C123.641 63.1596 118.982 54.4992 111.176 49.4946C88.2657 34.7955 60.8373 24.3423 27.3533 17.5533L9.24287 26.8741L113.233 74.3856Z" fill="black"/>
<path d="M140.282 80.0048H126.451C124.9 80.0048 123.641 78.7459 123.641 77.1948V72.6538C123.641 61.234 129.266 50.8089 138.688 44.7618C162.422 29.5372 190.789 18.7693 225.405 11.8482C226.034 11.7218 226.678 11.8145 227.243 12.1039L251.375 24.5241C252.33 25.0159 252.923 26.0134 252.898 27.0897C252.873 28.1659 252.235 29.1325 251.257 29.5793L141.451 79.7519C141.082 79.9205 140.683 80.0048 140.282 80.0048ZM129.261 74.3848H139.669L243.659 26.8733L225.548 17.5525C192.07 24.3415 164.641 34.7919 141.726 49.4938C133.92 54.4984 129.261 63.1588 129.261 72.6538V74.3848Z" fill="black"/>
</svg>
